# xmcd
#
# Track frame offsets: 
#        150
#        18796
#        42919
#        63162
#        82345
#        102421
#        123646
#        145228
#        157128
#        178212
#        193406
#        213734
#        232032
#        249868
#        264721
#
# Disc length: 3780 seconds
#
# Revision: 0
# Processed by: cddbd v1.5.2PL0 Copyright (c) Steve Scherf et al.
# Submitted via: ExactAudioCopyFreeDBPlugin 1.0
#
DISCID=e60ec20f
DTITLE=群星 - 天音老唱片（模拟混音鉴赏版）
DYEAR=2010
DGENRE=Pop
TTITLE0=我们多么幸福
TTITLE1=映山红
TTITLE2=织网歌
TTITLE3=我们的田野
TTITLE4=我们年青人
TTITLE5=军民鱼水情
TTITLE6=怀念战友
TTITLE7=桂花开放幸福来
TTITLE8=愿亲人早日养好伤
TTITLE9=在一起
TTITLE10=等你到天明
TTITLE11=雪里送炭（一）
TTITLE12=雪里送炭（二）
TTITLE13=毛委员和我们在一起
TTITLE14=草原上升起不落的太阳
EXTD=
EXTT0=
EXTT1=
EXTT2=
EXTT3=
EXTT4=
EXTT5=
EXTT6=
EXTT7=
EXTT8=
EXTT9=
EXTT10=
EXTT11=
EXTT12=
EXTT13=
EXTT14=
PLAYORDER=
